<svg width="64" height="64" viewBox="0 0 64 64" fill="none" xmlns="http://www.w3.org/2000/svg">
  <rect width="64" height="64" rx="10" fill="#4CAF50"/>
  <g fill="#fff">
    <path d="M32 16c-8.84 0-16 7.16-16 16s7.16 16 16 16 16-7.16 16-16-7.16-16-16-16zm0 2c2.76 0 5.26.98 7.22 2.62l-7.22 10.4-7.22-10.4c1.96-1.64 4.46-2.62 7.22-2.62zM23 26.78l7.22 10.4c-.64.26-1.32.42-2.03.42-3.87 0-7-3.13-7-7 0-1.45.44-2.8 1.19-3.82.26-.36.54-.7.84-1zM41 26.78c.3.3.58.64.84 1 .75 1.02 1.19 2.37 1.19 3.82 0 3.87-3.13 7-7 7-.71 0-1.39-.16-2.03-.42l7.22-10.4z"/>
    <path d="M32 20c-.55 0-1 .45-1 1v10c0 .55.45 1 1 1s1-.45 1-1V21c0-.55-.45-1-1-1z"/>
  </g>
</svg>